# xmcd
#
# Track frame offsets: 
#        150
#        38890
#        85550
#        116177
#        159590
#        194250
#        239000
#
# Disc length: 3882 seconds
#
# Revision: 0
# Processed by: cddbd v1.5.2PL0 Copyright (c) Steve Scherf et al.
# Submitted via: ExactAudioCopy v0.99pb5
#
DISCID=570f2807
DTITLE=Jack Bruce  - Rollin' and Tumblin'  FLAC
DYEAR=1900
DGENRE=
TTITLE0=White Room
TTITLE1=Born under a Bad Sign
TTITLE2=Theme for an Imaginary Western
TTITLE3=Rollin' and Tumblin'
TTITLE4=Sitting on Top of the World
TTITLE5=Politician
TTITLE6=Sunshine of Your Love
EXTD=
EXTT0=
EXTT1=
EXTT2=
EXTT3=
EXTT4=
EXTT5=
EXTT6=
PLAYORDER=
